# xmcd CD database file
#
# Track frame offsets:
#	150
#	9246
#	18422
#	26241
#	41450
#	50812
#	62637
#	73418
#	88350
#	109225
#	120643
#	133650
#	147617
#	158885
#	170578
#	187313
#	201410
#	210426
#	222803
#	236989
#
# Disc length: 3257 seconds
#
# Revision: 0
# Processed by: cddbd v1.5.2PL0 Copyright (c) Steve Scherf et al.
# Submitted via: CDex 1.79
#
DISCID=3f0cb714
DTITLE=Various Artist - Trampske perly
DYEAR=2010
DGENRE=Country
TTITLE0=Za chvili uz budu v dali
TTITLE1=Toulam se
TTITLE2=Slapej dal
TTITLE3=Pisen, co me ucil listopad
TTITLE4=Rovnou
TTITLE5=Tulacky rano
TTITLE6=Buraky
TTITLE7=Poutnik s kytarou
TTITLE8=Oranzovy expres
TTITLE9=Cesty toulavy
TTITLE10=Ruty suty
TTITLE11=Ovecka
TTITLE12=Zradny banjo
TTITLE13=Na kameni kamen
TTITLE14=Jo, tresne zraly
TTITLE15=Frankie Dlouhan
TTITLE16=Aljaska
TTITLE17=Zelene plane
TTITLE18=Tisic mil
TTITLE19=Stara chajda drnova
EXTD=YEAR: 2010
EXTT0=
EXTT1=
EXTT2=
EXTT3=
EXTT4=
EXTT5=
EXTT6=
EXTT7=
EXTT8=
EXTT9=
EXTT10=
EXTT11=
EXTT12=
EXTT13=
EXTT14=
EXTT15=
EXTT16=
EXTT17=
EXTT18=
EXTT19=
PLAYORDER=
